<svg xmlns="http://www.w3.org/2000/svg" viewBox="0 0 64 64">
  <defs>
    <linearGradient id="g" x1="0%" y1="0%" x2="100%" y2="100%">
      <stop offset="0%" stop-color="#7C6BF0"/>
      <stop offset="100%" stop-color="#5241CC"/>
    </linearGradient>
    <linearGradient id="r" x1="0" y1="0" x2="1" y2="0">
      <stop offset="0%" stop-color="#F4D03F"/>
      <stop offset="50%" stop-color="#FFEAA7"/>
      <stop offset="100%" stop-color="#F4D03F"/>
    </linearGradient>
  </defs>
  <rect width="64" height="64" rx="15" fill="url(#g)"/>
  <circle cx="18" cy="16" r="20" fill="#8B7CF7" opacity=".25"/>
  <!-- Rail -->
  <rect x="13" y="16" width="38" height="2" rx="1" fill="url(#r)"/>
  <circle cx="13" cy="17" r="2.5" fill="#F4D03F"/>
  <circle cx="51" cy="17" r="2.5" fill="#F4D03F"/>
  <!-- Left -->
  <path d="M15 18 C14 26,13 34,15 42 C16 46,15 49,16 52 L28 52 C29 49,28 42,29 34 C30 26,29 22,30 18 Z" fill="white" fill-opacity=".88"/>
  <path d="M22 20 C21.5 30,21 40,22.5 50" stroke="white" stroke-width="1" opacity=".4" fill="none"/>
  <!-- Right -->
  <path d="M34 18 C35 22,34 26,35 34 C36 42,35 49,36 52 L48 52 C49 49,48 46,49 42 C51 34,50 26,49 18 Z" fill="white" fill-opacity=".7"/>
  <path d="M42 20 C42.5 30,43 40,41.5 50" stroke="white" stroke-width="1" opacity=".3" fill="none"/>
  <!-- Sparkle -->
  <path d="M32 30 L33 33 L36 34 L33 35 L32 38 L31 35 L28 34 L31 33 Z" fill="white" opacity=".6"/>
</svg>
