<svg xmlns="http://www.w3.org/2000/svg" viewBox="0 0 480 120">
  <defs>
    <linearGradient id="g" x1="0%" y1="0%" x2="100%" y2="100%">
      <stop offset="0%" stop-color="#7C6BF0"/>
      <stop offset="100%" stop-color="#5241CC"/>
    </linearGradient>
    <linearGradient id="r" x1="0" y1="0" x2="1" y2="0">
      <stop offset="0%" stop-color="#F4D03F"/>
      <stop offset="50%" stop-color="#FFEAA7"/>
      <stop offset="100%" stop-color="#F4D03F"/>
    </linearGradient>
  </defs>

  <!-- Icon -->
  <rect x="10" y="10" width="100" height="100" rx="24" fill="url(#g)"/>
  <circle cx="35" cy="30" r="30" fill="#8B7CF7" opacity=".25"/>
  <rect x="26" y="34" width="58" height="3" rx="1.5" fill="url(#r)"/>
  <circle cx="26" cy="35.5" r="3.5" fill="#F4D03F"/>
  <circle cx="84" cy="35.5" r="3.5" fill="#F4D03F"/>
  <path d="M29 37 C28 48,26 58,29 70 C30 76,28 80,30 85 L47 85 C48 80,46 70,48 58 C49 48,48 42,50 37 Z" fill="white" fill-opacity=".88"/>
  <path d="M39 40 C38 55,37 70,39.5 83" stroke="white" stroke-width="1.2" opacity=".4" fill="none"/>
  <path d="M60 37 C62 42,60 48,62 58 C64 70,62 80,63 85 L80 85 C82 80,80 76,82 70 C84 58,82 48,81 37 Z" fill="white" fill-opacity=".7"/>
  <path d="M71 40 C72 55,73 70,71 83" stroke="white" stroke-width="1.2" opacity=".3" fill="none"/>
  <path d="M55 52 L56.5 56 L60.5 57.5 L56.5 59 L55 63 L53.5 59 L49.5 57.5 L53.5 56 Z" fill="white" opacity=".55"/>

  <!-- Text -->
  <text x="128" y="58" font-family="'Outfit',system-ui,-apple-system,sans-serif" font-size="36" font-weight="800" fill="#1A1D2E" letter-spacing="-1">Curtain</text>
  <text x="296" y="58" font-family="'Outfit',system-ui,-apple-system,sans-serif" font-size="36" font-weight="800" fill="#6C5CE7" letter-spacing="-1">Academy</text>
  <text x="128" y="82" font-family="'IBM Plex Sans Thai',system-ui,sans-serif" font-size="15" font-weight="500" fill="#9498AC" letter-spacing=".3">ระบบอบรมฝ่ายขายผ้าม่าน</text>
</svg>
